<?xml version="1.0" encoding="UTF-8" standalone="no"?>
<svg
   viewBox="0 0 50 50"
   width="200px"
   height="200px"
   version="1.1"
   id="svg1"
   sodipodi:docname="icons8-x.svg"
   inkscape:version="1.4 (86a8ad7, 2024-10-11)"
   xmlns:inkscape="http://www.inkscape.org/namespaces/inkscape"
   xmlns:sodipodi="http://sodipodi.sourceforge.net/DTD/sodipodi-0.dtd"
   xmlns="http://www.w3.org/2000/svg"
   xmlns:svg="http://www.w3.org/2000/svg">
  <defs
     id="defs1" />
  <sodipodi:namedview
     id="namedview1"
     pagecolor="#000000"
     bordercolor="#000000"
     borderopacity="0.25"
     inkscape:showpageshadow="2"
     inkscape:pageopacity="0.0"
     inkscape:pagecheckerboard="0"
     inkscape:deskcolor="#d1d1d1"
     inkscape:zoom="4"
     inkscape:cx="69.875"
     inkscape:cy="93.125"
     inkscape:window-width="1920"
     inkscape:window-height="1009"
     inkscape:window-x="-8"
     inkscape:window-y="-8"
     inkscape:window-maximized="1"
     inkscape:current-layer="svg1" />
  <path
     d="M 5.9199219 6 L 20.582031 27.375 L 6.2304688 44 L 9.4101562 44 L 21.986328 29.421875 L 31.986328 44 L 44 44 L 28.681641 21.669922 L 42.199219 6 L 39.029297 6 L 27.275391 19.617188 L 17.933594 6 L 5.9199219 6 z M 9.7167969 8 L 16.880859 8 L 40.203125 42 L 33.039062 42 L 9.7167969 8 z"
     id="path1" />
  <path
     style="fill:none;stroke-width:0.25;fill-opacity:0;stroke:#ffffff;stroke-opacity:1;opacity:1;stroke-dasharray:none"
     d="m 6.2304687,43.999023 3.1816406,0.002 L 21.985351,29.42192 31.988282,44.001998 H 44 L 28.682617,21.669967 42.199218,5.9980918 H 39.030273 L 27.274415,19.617187 17.933594,5.9980468 H 5.9189452 L 20.579101,27.373048 Z"
     id="path2" />
  <path
     style="opacity:1;fill:none;fill-opacity:0;stroke:#ffffff;stroke-width:0.25;stroke-dasharray:none;stroke-opacity:1"
     d="M 9.7138673,7.9990235 33.04004,42 h 6.663085 L 16.880859,7.9990235 Z"
     id="path3" />
</svg>
